<mxfile host="app.diagrams.net" modified="2021-10-05T09:48:21.234Z" agent="5.0 (Windows NT 10.0; Win64; x64) AppleWebKit/537.36 (KHTML, like Gecko) Chrome/94.0.4606.71 Safari/537.36" etag="i8VnKxhd5yfaxU6M4DKk" version="13.9.6" type="github">
  <diagram id="R2lEEEUBdFMjLlhIrx00" name="Page-1">
    <mxGraphModel dx="2128" dy="585" grid="1" gridSize="10" guides="1" tooltips="1" connect="1" arrows="1" fold="1" page="1" pageScale="1" pageWidth="850" pageHeight="1100" math="0" shadow="0" extFonts="Permanent Marker^https://fonts.googleapis.com/css?family=Permanent+Marker">
      <root>
        <mxCell id="0" />
        <mxCell id="1" parent="0" />
        <mxCell id="Uu7_aSn_shOe47swdy9u-1" value="" style="rounded=0;whiteSpace=wrap;html=1;" vertex="1" parent="1">
          <mxGeometry x="550" y="80" width="120" height="60" as="geometry" />
        </mxCell>
        <mxCell id="Uu7_aSn_shOe47swdy9u-2" value="Healthcare Assistant" style="rounded=0;whiteSpace=wrap;html=1;" vertex="1" parent="1">
          <mxGeometry x="550" y="300" width="120" height="60" as="geometry" />
        </mxCell>
        <mxCell id="Uu7_aSn_shOe47swdy9u-3" value="Doctor" style="rounded=0;whiteSpace=wrap;html=1;" vertex="1" parent="1">
          <mxGeometry x="230" y="210" width="120" height="60" as="geometry" />
        </mxCell>
        <mxCell id="Uu7_aSn_shOe47swdy9u-4" value="Patient" style="rounded=0;whiteSpace=wrap;html=1;" vertex="1" parent="1">
          <mxGeometry x="230" y="450" width="120" height="60" as="geometry" />
        </mxCell>
        <mxCell id="Uu7_aSn_shOe47swdy9u-7" value="" style="endArrow=none;html=1;entryX=0.5;entryY=1;entryDx=0;entryDy=0;" edge="1" parent="1" target="Uu7_aSn_shOe47swdy9u-1">
          <mxGeometry width="50" height="50" relative="1" as="geometry">
            <mxPoint x="610" y="200" as="sourcePoint" />
            <mxPoint x="450" y="280" as="targetPoint" />
          </mxGeometry>
        </mxCell>
        <mxCell id="Uu7_aSn_shOe47swdy9u-8" value="attends" style="rhombus;whiteSpace=wrap;html=1;" vertex="1" parent="1">
          <mxGeometry x="580" y="450" width="60" height="60" as="geometry" />
        </mxCell>
        <mxCell id="Uu7_aSn_shOe47swdy9u-9" value="&lt;span&gt;trea&lt;/span&gt;ts" style="rhombus;whiteSpace=wrap;html=1;" vertex="1" parent="1">
          <mxGeometry x="265" y="340" width="50" height="50" as="geometry" />
        </mxCell>
        <mxCell id="Uu7_aSn_shOe47swdy9u-10" value="&lt;span&gt;to&lt;/span&gt;" style="rhombus;whiteSpace=wrap;html=1;" vertex="1" parent="1">
          <mxGeometry x="585" y="200" width="50" height="50" as="geometry" />
        </mxCell>
        <mxCell id="Uu7_aSn_shOe47swdy9u-12" value="" style="endArrow=none;html=1;exitX=0.5;exitY=0;exitDx=0;exitDy=0;" edge="1" parent="1" source="Uu7_aSn_shOe47swdy9u-8">
          <mxGeometry width="50" height="50" relative="1" as="geometry">
            <mxPoint x="560" y="410" as="sourcePoint" />
            <mxPoint x="610" y="360" as="targetPoint" />
          </mxGeometry>
        </mxCell>
        <mxCell id="Uu7_aSn_shOe47swdy9u-13" value="" style="endArrow=none;html=1;" edge="1" parent="1" source="Uu7_aSn_shOe47swdy9u-2">
          <mxGeometry width="50" height="50" relative="1" as="geometry">
            <mxPoint x="560" y="300" as="sourcePoint" />
            <mxPoint x="610" y="250" as="targetPoint" />
          </mxGeometry>
        </mxCell>
        <mxCell id="Uu7_aSn_shOe47swdy9u-15" value="" style="endArrow=none;html=1;" edge="1" parent="1" source="Uu7_aSn_shOe47swdy9u-4">
          <mxGeometry width="50" height="50" relative="1" as="geometry">
            <mxPoint x="530" y="530" as="sourcePoint" />
            <mxPoint x="580" y="480" as="targetPoint" />
          </mxGeometry>
        </mxCell>
        <mxCell id="Uu7_aSn_shOe47swdy9u-16" value="" style="endArrow=none;html=1;exitX=0.5;exitY=0;exitDx=0;exitDy=0;" edge="1" parent="1" source="Uu7_aSn_shOe47swdy9u-4">
          <mxGeometry width="50" height="50" relative="1" as="geometry">
            <mxPoint x="240" y="440" as="sourcePoint" />
            <mxPoint x="290" y="390" as="targetPoint" />
          </mxGeometry>
        </mxCell>
        <mxCell id="Uu7_aSn_shOe47swdy9u-17" value="" style="endArrow=none;html=1;exitX=0.5;exitY=0;exitDx=0;exitDy=0;entryX=0.5;entryY=1;entryDx=0;entryDy=0;" edge="1" parent="1" source="Uu7_aSn_shOe47swdy9u-9" target="Uu7_aSn_shOe47swdy9u-3">
          <mxGeometry width="50" height="50" relative="1" as="geometry">
            <mxPoint x="250" y="320" as="sourcePoint" />
            <mxPoint x="300" y="270" as="targetPoint" />
          </mxGeometry>
        </mxCell>
        <mxCell id="Uu7_aSn_shOe47swdy9u-18" value="Department" style="text;html=1;strokeColor=none;fillColor=none;align=center;verticalAlign=middle;whiteSpace=wrap;rounded=0;" vertex="1" parent="1">
          <mxGeometry x="590" y="100" width="40" height="20" as="geometry" />
        </mxCell>
        <mxCell id="Uu7_aSn_shOe47swdy9u-19" value="Drugs" style="rounded=0;whiteSpace=wrap;html=1;" vertex="1" parent="1">
          <mxGeometry x="70" y="330" width="120" height="60" as="geometry" />
        </mxCell>
        <mxCell id="Uu7_aSn_shOe47swdy9u-23" value="prescribes" style="rhombus;whiteSpace=wrap;html=1;" vertex="1" parent="1">
          <mxGeometry x="90" y="200" width="80" height="80" as="geometry" />
        </mxCell>
        <mxCell id="Uu7_aSn_shOe47swdy9u-24" value="" style="rhombus;whiteSpace=wrap;html=1;" vertex="1" parent="1">
          <mxGeometry x="100" y="480" width="80" height="80" as="geometry" />
        </mxCell>
        <mxCell id="Uu7_aSn_shOe47swdy9u-25" value="takes" style="text;html=1;strokeColor=none;fillColor=none;align=center;verticalAlign=middle;whiteSpace=wrap;rounded=0;" vertex="1" parent="1">
          <mxGeometry x="120" y="510" width="40" height="20" as="geometry" />
        </mxCell>
        <mxCell id="Uu7_aSn_shOe47swdy9u-26" value="" style="endArrow=none;html=1;exitX=1;exitY=0.5;exitDx=0;exitDy=0;" edge="1" parent="1" source="Uu7_aSn_shOe47swdy9u-23">
          <mxGeometry width="50" height="50" relative="1" as="geometry">
            <mxPoint x="180" y="290" as="sourcePoint" />
            <mxPoint x="230" y="240" as="targetPoint" />
          </mxGeometry>
        </mxCell>
        <mxCell id="Uu7_aSn_shOe47swdy9u-27" value="" style="endArrow=none;html=1;exitX=1;exitY=0.5;exitDx=0;exitDy=0;entryX=0;entryY=0.5;entryDx=0;entryDy=0;" edge="1" parent="1" source="Uu7_aSn_shOe47swdy9u-19" target="Uu7_aSn_shOe47swdy9u-9">
          <mxGeometry width="50" height="50" relative="1" as="geometry">
            <mxPoint x="180" y="250" as="sourcePoint" />
            <mxPoint x="240" y="250" as="targetPoint" />
            <Array as="points" />
          </mxGeometry>
        </mxCell>
        <mxCell id="Uu7_aSn_shOe47swdy9u-28" value="" style="endArrow=none;html=1;entryX=0;entryY=0.5;entryDx=0;entryDy=0;exitX=1;exitY=0.5;exitDx=0;exitDy=0;" edge="1" parent="1" source="Uu7_aSn_shOe47swdy9u-24">
          <mxGeometry width="50" height="50" relative="1" as="geometry">
            <mxPoint x="170" y="468" as="sourcePoint" />
            <mxPoint x="230" y="472.5" as="targetPoint" />
            <Array as="points" />
          </mxGeometry>
        </mxCell>
        <mxCell id="Uu7_aSn_shOe47swdy9u-30" value="" style="endArrow=none;html=1;exitX=0.5;exitY=0;exitDx=0;exitDy=0;" edge="1" parent="1" source="Uu7_aSn_shOe47swdy9u-19">
          <mxGeometry width="50" height="50" relative="1" as="geometry">
            <mxPoint x="80" y="330" as="sourcePoint" />
            <mxPoint x="130" y="280" as="targetPoint" />
          </mxGeometry>
        </mxCell>
        <mxCell id="Uu7_aSn_shOe47swdy9u-31" value="Morning" style="ellipse;whiteSpace=wrap;html=1;" vertex="1" parent="1">
          <mxGeometry x="-40" y="290" width="60" height="40" as="geometry" />
        </mxCell>
        <mxCell id="Uu7_aSn_shOe47swdy9u-33" value="" style="endArrow=none;html=1;" edge="1" parent="1" source="Uu7_aSn_shOe47swdy9u-31">
          <mxGeometry width="50" height="50" relative="1" as="geometry">
            <mxPoint x="20" y="440" as="sourcePoint" />
            <mxPoint x="70" y="390" as="targetPoint" />
          </mxGeometry>
        </mxCell>
        <mxCell id="Uu7_aSn_shOe47swdy9u-34" value="Evening" style="ellipse;whiteSpace=wrap;html=1;" vertex="1" parent="1">
          <mxGeometry x="-30" y="235" width="60" height="40" as="geometry" />
        </mxCell>
        <mxCell id="Uu7_aSn_shOe47swdy9u-37" value="" style="endArrow=none;html=1;exitX=1;exitY=0;exitDx=0;exitDy=0;" edge="1" parent="1" source="Uu7_aSn_shOe47swdy9u-34" target="Uu7_aSn_shOe47swdy9u-19">
          <mxGeometry width="50" height="50" relative="1" as="geometry">
            <mxPoint x="120" y="440" as="sourcePoint" />
            <mxPoint x="170" y="390" as="targetPoint" />
          </mxGeometry>
        </mxCell>
        <mxCell id="Uu7_aSn_shOe47swdy9u-38" value="Afternoon" style="ellipse;whiteSpace=wrap;html=1;" vertex="1" parent="1">
          <mxGeometry x="-70" y="430" width="60" height="40" as="geometry" />
        </mxCell>
        <mxCell id="Uu7_aSn_shOe47swdy9u-39" value="" style="endArrow=none;html=1;entryX=0.5;entryY=1;entryDx=0;entryDy=0;exitX=0.5;exitY=0;exitDx=0;exitDy=0;" edge="1" parent="1" source="Uu7_aSn_shOe47swdy9u-38" target="Uu7_aSn_shOe47swdy9u-19">
          <mxGeometry width="50" height="50" relative="1" as="geometry">
            <mxPoint x="260" y="300" as="sourcePoint" />
            <mxPoint x="290" y="270" as="targetPoint" />
          </mxGeometry>
        </mxCell>
        <mxCell id="Uu7_aSn_shOe47swdy9u-42" value="1..3" style="text;html=1;align=center;verticalAlign=middle;resizable=0;points=[];autosize=1;" vertex="1" parent="1">
          <mxGeometry x="290" y="290" width="40" height="20" as="geometry" />
        </mxCell>
        <mxCell id="Uu7_aSn_shOe47swdy9u-43" value="M" style="text;html=1;align=center;verticalAlign=middle;resizable=0;points=[];autosize=1;" vertex="1" parent="1">
          <mxGeometry x="365" y="450" width="30" height="20" as="geometry" />
        </mxCell>
        <mxCell id="Uu7_aSn_shOe47swdy9u-44" value="M" style="text;html=1;align=center;verticalAlign=middle;resizable=0;points=[];autosize=1;" vertex="1" parent="1">
          <mxGeometry x="610" y="432" width="30" height="20" as="geometry" />
        </mxCell>
        <mxCell id="Uu7_aSn_shOe47swdy9u-45" value="M" style="text;html=1;align=center;verticalAlign=middle;resizable=0;points=[];autosize=1;" vertex="1" parent="1">
          <mxGeometry x="610" y="280" width="30" height="20" as="geometry" />
        </mxCell>
        <mxCell id="Uu7_aSn_shOe47swdy9u-46" value="M" style="text;html=1;align=center;verticalAlign=middle;resizable=0;points=[];autosize=1;" vertex="1" parent="1">
          <mxGeometry x="130" y="392" width="30" height="20" as="geometry" />
        </mxCell>
        <mxCell id="Uu7_aSn_shOe47swdy9u-47" value="M" style="text;html=1;align=center;verticalAlign=middle;resizable=0;points=[];autosize=1;" vertex="1" parent="1">
          <mxGeometry x="130" y="280" width="30" height="20" as="geometry" />
        </mxCell>
        <mxCell id="Uu7_aSn_shOe47swdy9u-48" value="M" style="text;html=1;align=center;verticalAlign=middle;resizable=0;points=[];autosize=1;" vertex="1" parent="1">
          <mxGeometry x="285" y="180" width="30" height="20" as="geometry" />
        </mxCell>
        <mxCell id="Uu7_aSn_shOe47swdy9u-49" value="have" style="rhombus;whiteSpace=wrap;html=1;" vertex="1" parent="1">
          <mxGeometry x="395" y="90" width="65" height="60" as="geometry" />
        </mxCell>
        <mxCell id="Uu7_aSn_shOe47swdy9u-50" value="" style="endArrow=none;html=1;exitX=1;exitY=0.5;exitDx=0;exitDy=0;entryX=0;entryY=0.5;entryDx=0;entryDy=0;" edge="1" parent="1" source="Uu7_aSn_shOe47swdy9u-49" target="Uu7_aSn_shOe47swdy9u-1">
          <mxGeometry width="50" height="50" relative="1" as="geometry">
            <mxPoint x="500" y="160" as="sourcePoint" />
            <mxPoint x="550" y="110" as="targetPoint" />
            <Array as="points">
              <mxPoint x="530" y="110" />
            </Array>
          </mxGeometry>
        </mxCell>
        <mxCell id="Uu7_aSn_shOe47swdy9u-51" value="" style="endArrow=none;html=1;exitX=0.633;exitY=0.01;exitDx=0;exitDy=0;exitPerimeter=0;entryX=0;entryY=0.5;entryDx=0;entryDy=0;" edge="1" parent="1" source="Uu7_aSn_shOe47swdy9u-3" target="Uu7_aSn_shOe47swdy9u-49">
          <mxGeometry width="50" height="50" relative="1" as="geometry">
            <mxPoint x="345" y="170" as="sourcePoint" />
            <mxPoint x="395" y="120" as="targetPoint" />
          </mxGeometry>
        </mxCell>
        <mxCell id="Uu7_aSn_shOe47swdy9u-52" value="1" style="text;html=1;align=center;verticalAlign=middle;resizable=0;points=[];autosize=1;" vertex="1" parent="1">
          <mxGeometry x="200" y="215" width="20" height="20" as="geometry" />
        </mxCell>
        <mxCell id="Uu7_aSn_shOe47swdy9u-53" value="1" style="text;html=1;align=center;verticalAlign=middle;resizable=0;points=[];autosize=1;" vertex="1" parent="1">
          <mxGeometry x="210" y="460" width="20" height="20" as="geometry" />
        </mxCell>
        <mxCell id="Uu7_aSn_shOe47swdy9u-54" value="1" style="text;html=1;align=center;verticalAlign=middle;resizable=0;points=[];autosize=1;" vertex="1" parent="1">
          <mxGeometry x="530" y="90" width="20" height="20" as="geometry" />
        </mxCell>
      </root>
    </mxGraphModel>
  </diagram>
</mxfile>
